<svg width="688" height="485" viewBox="0 0 688 485" fill="none" xmlns="http://www.w3.org/2000/svg">
<g filter="url(#filter0_d_512_11566)">
<path d="M558.589 299.266H121.273C118.288 299.263 115.426 298.076 113.315 295.965C111.204 293.854 110.017 290.992 110.014 288.007V18.3489C110.016 16.1618 110.886 14.0651 112.432 12.5186C113.979 10.9721 116.076 10.1021 118.263 10.0996H561.457C563.682 10.1021 565.815 10.9871 567.389 12.5603C568.962 14.1336 569.847 16.2666 569.849 18.4915V288.007C569.846 290.992 568.658 293.854 566.548 295.965C564.437 298.076 561.575 299.263 558.589 299.266Z" fill="#F2F2F2"/>
<path d="M542.638 283.323H135.071C129.097 283.323 124.236 278.771 124.236 273.176V38.3549C124.236 34.2058 127.838 30.8301 132.265 30.8301H545.311C549.812 30.8301 553.473 34.2615 553.473 38.4789V273.176C553.474 278.771 548.613 283.323 542.638 283.323Z" fill="white"/>
<path d="M569.694 17.706H109.857V11.9735C109.862 8.97829 111.054 6.10713 113.173 3.98987C115.291 1.87261 118.163 0.682162 121.158 0.679688H558.393C561.389 0.682148 564.26 1.87259 566.379 3.98985C568.498 6.10712 569.69 8.97829 569.694 11.9735V17.706Z" fill="#CCCCCC"/>
<path d="M130.394 12.1332C132.008 12.1332 133.317 10.8245 133.317 9.21017C133.317 7.59581 132.008 6.28711 130.394 6.28711C128.779 6.28711 127.471 7.59581 127.471 9.21017C127.471 10.8245 128.779 12.1332 130.394 12.1332Z" fill="white"/>
<path d="M141.489 12.1332C143.104 12.1332 144.413 10.8245 144.413 9.21017C144.413 7.59581 143.104 6.28711 141.489 6.28711C139.875 6.28711 138.566 7.59581 138.566 9.21017C138.566 10.8245 139.875 12.1332 141.489 12.1332Z" fill="white"/>
<path d="M152.583 12.1332C154.198 12.1332 155.506 10.8245 155.506 9.21017C155.506 7.59581 154.198 6.28711 152.583 6.28711C150.969 6.28711 149.66 7.59581 149.66 9.21017C149.66 10.8245 150.969 12.1332 152.583 12.1332Z" fill="white"/>
<path d="M497.777 243.938H181.93C178.764 243.934 175.729 242.675 173.49 240.436C171.251 238.197 169.992 235.162 169.988 231.996V79.7129C169.991 77.345 170.933 75.0747 172.607 73.4003C174.281 71.7259 176.552 70.784 178.92 70.7812H500.645C503.051 70.784 505.357 71.7409 507.059 73.4421C508.76 75.1433 509.717 77.4497 509.719 79.8555V231.996C509.716 235.162 508.456 238.197 506.218 240.436C503.979 242.675 500.943 243.934 497.777 243.938ZM178.92 72.1461C176.914 72.1484 174.99 72.9463 173.572 74.3649C172.153 75.7835 171.355 77.7068 171.353 79.7129V231.996C171.356 234.8 172.472 237.489 174.455 239.472C176.438 241.455 179.126 242.57 181.93 242.573H497.777C500.581 242.57 503.27 241.455 505.253 239.472C507.236 237.489 508.351 234.8 508.354 231.996V79.8555C508.352 77.8116 507.539 75.852 506.094 74.4067C504.649 72.9614 502.689 72.1484 500.645 72.1461H178.92Z" fill="#CCCCCC"/>
<path d="M192.848 231.997H486.858C489.753 231.997 492.531 230.847 494.578 228.799C496.626 226.752 497.776 223.974 497.776 221.079V93.776C497.776 90.8802 496.626 88.103 494.578 86.0554C492.531 84.0078 489.753 82.8574 486.858 82.8574H192.848C189.952 82.8574 187.175 84.0078 185.128 86.0554C183.08 88.103 181.93 90.8802 181.93 93.776V221.079C181.93 223.974 183.08 226.752 185.128 228.799C187.175 230.847 189.952 231.997 192.848 231.997Z" fill="#F2F2F2"/>
<path d="M226.232 119.895C229.624 119.895 232.373 117.145 232.373 113.753C232.373 110.361 229.624 107.611 226.232 107.611C222.84 107.611 220.09 110.361 220.09 113.753C220.09 117.145 222.84 119.895 226.232 119.895Z" fill="#CCCCCC"/>
<path d="M226.232 143.096C229.624 143.096 232.373 140.346 232.373 136.954C232.373 133.562 229.624 130.812 226.232 130.812C222.84 130.812 220.09 133.562 220.09 136.954C220.09 140.346 222.84 143.096 226.232 143.096Z" fill="#CCCCCC"/>
<path d="M226.232 166.297C229.624 166.297 232.373 163.547 232.373 160.155C232.373 156.763 229.624 154.014 226.232 154.014C222.84 154.014 220.09 156.763 220.09 160.155C220.09 163.547 222.84 166.297 226.232 166.297Z" fill="#CCCCCC"/>
<path d="M226.232 189.5C229.624 189.5 232.373 186.75 232.373 183.359C232.373 179.967 229.624 177.217 226.232 177.217C222.84 177.217 220.09 179.967 220.09 183.359C220.09 186.75 222.84 189.5 226.232 189.5Z" fill="#CCCCCC"/>
<path d="M458.934 114.435H256.94C256.759 114.435 256.586 114.363 256.458 114.235C256.33 114.107 256.258 113.934 256.258 113.753C256.258 113.572 256.33 113.398 256.458 113.27C256.586 113.142 256.759 113.07 256.94 113.07H458.934C459.115 113.07 459.289 113.142 459.417 113.27C459.545 113.398 459.617 113.572 459.617 113.753C459.617 113.934 459.545 114.107 459.417 114.235C459.289 114.363 459.115 114.435 458.934 114.435Z" fill="#CCCCCC"/>
<path d="M458.934 137.636H256.94C256.759 137.636 256.586 137.564 256.458 137.436C256.33 137.308 256.258 137.135 256.258 136.954C256.258 136.773 256.33 136.599 256.458 136.471C256.586 136.343 256.759 136.271 256.94 136.271H458.934C459.115 136.271 459.289 136.343 459.417 136.471C459.545 136.599 459.617 136.773 459.617 136.954C459.617 137.135 459.545 137.308 459.417 137.436C459.289 137.564 459.115 137.636 458.934 137.636Z" fill="#CCCCCC"/>
<path d="M458.934 160.839H256.94C256.759 160.839 256.586 160.768 256.458 160.64C256.33 160.512 256.258 160.338 256.258 160.157C256.258 159.976 256.33 159.802 256.458 159.674C256.586 159.547 256.759 159.475 256.94 159.475H458.934C459.115 159.475 459.289 159.547 459.417 159.674C459.545 159.802 459.617 159.976 459.617 160.157C459.617 160.338 459.545 160.512 459.417 160.64C459.289 160.768 459.115 160.839 458.934 160.839Z" fill="#CCCCCC"/>
<path d="M458.934 184.041H256.94C256.759 184.041 256.586 183.969 256.458 183.841C256.33 183.713 256.258 183.539 256.258 183.358C256.258 183.177 256.33 183.004 256.458 182.876C256.586 182.748 256.759 182.676 256.94 182.676H458.934C459.115 182.676 459.289 182.748 459.417 182.876C459.545 183.004 459.617 183.177 459.617 183.358C459.617 183.539 459.545 183.713 459.417 183.841C459.289 183.969 459.115 184.041 458.934 184.041Z" fill="#CCCCCC"/>
<path d="M295.155 207.243H275.365C274.461 207.242 273.593 206.883 272.954 206.243C272.314 205.603 271.954 204.736 271.953 203.831V185.406C271.954 184.502 272.314 183.634 272.954 182.995C273.593 182.355 274.461 181.995 275.365 181.994H295.155C296.06 181.995 296.927 182.355 297.567 182.995C298.206 183.634 298.566 184.502 298.567 185.406V203.831C298.566 204.736 298.206 205.603 297.567 206.243C296.927 206.883 296.06 207.242 295.155 207.243Z" fill="#F2AF3F"/>
<path d="M339.513 207.242H319.723C318.818 207.241 317.951 206.881 317.311 206.242C316.671 205.602 316.312 204.735 316.311 203.83V162.203C316.312 161.298 316.671 160.431 317.311 159.792C317.951 159.152 318.818 158.792 319.723 158.791H339.513C340.417 158.792 341.284 159.152 341.924 159.792C342.564 160.431 342.924 161.298 342.925 162.203V203.83C342.924 204.735 342.564 205.602 341.924 206.242C341.284 206.881 340.417 207.241 339.513 207.242Z" fill="#EB4335"/>
<path d="M384.552 207.243H364.762C363.857 207.242 362.99 206.882 362.35 206.243C361.71 205.603 361.351 204.736 361.35 203.831V139.002C361.351 138.097 361.71 137.23 362.35 136.59C362.99 135.951 363.857 135.591 364.762 135.59H384.552C385.456 135.591 386.323 135.951 386.963 136.59C387.603 137.23 387.963 138.097 387.964 139.002V203.831C387.963 204.736 387.603 205.603 386.963 206.243C386.323 206.882 385.456 207.242 384.552 207.243Z" fill="#34A853"/>
<path d="M430.956 207.243H411.166C410.261 207.242 409.394 206.882 408.754 206.243C408.115 205.603 407.755 204.736 407.754 203.831V116.482C407.755 115.578 408.115 114.71 408.754 114.071C409.394 113.431 410.261 113.071 411.166 113.07H430.956C431.861 113.071 432.728 113.431 433.367 114.071C434.007 114.71 434.367 115.578 434.368 116.482V203.831C434.367 204.736 434.007 205.603 433.367 206.243C432.728 206.882 431.861 207.242 430.956 207.243Z" fill="#6C63FF"/>
<path d="M458.934 207.242H256.94C256.759 207.242 256.586 207.17 256.458 207.042C256.33 206.914 256.258 206.74 256.258 206.559C256.258 206.378 256.33 206.205 256.458 206.077C256.586 205.949 256.759 205.877 256.94 205.877H458.934C459.115 205.877 459.289 205.949 459.417 206.077C459.545 206.205 459.617 206.378 459.617 206.559C459.617 206.74 459.545 206.914 459.417 207.042C459.289 207.17 459.115 207.242 458.934 207.242Z" fill="#3F3D56"/>
<path d="M547.681 334.545C548.234 333.708 548.964 333.003 549.819 332.478C550.674 331.954 551.634 331.623 552.631 331.51C553.628 331.396 554.637 331.503 555.588 331.822C556.54 332.141 557.409 332.664 558.136 333.356L579.806 322.172L578.459 334.772L558.087 343.461C556.844 344.605 555.225 345.254 553.537 345.284C551.848 345.314 550.207 344.724 548.924 343.625C547.641 342.526 546.807 340.995 546.577 339.321C546.348 337.648 546.741 335.949 547.681 334.545Z" fill="#FFB8B8"/>
<path d="M566.327 339.245C565.835 338.859 565.472 338.332 565.287 337.735L563.563 332.167C563.378 331.564 563.383 330.918 563.576 330.318C563.77 329.717 564.144 329.19 564.646 328.809L582.21 315.543L601.232 280.254C602.029 279.227 603.02 278.368 604.149 277.725C605.278 277.082 606.522 276.667 607.811 276.505C609.1 276.343 610.408 276.436 611.661 276.78C612.914 277.123 614.087 277.71 615.113 278.507C616.14 279.304 616.999 280.295 617.642 281.423C618.285 282.552 618.699 283.797 618.861 285.086C619.024 286.375 618.93 287.683 618.587 288.936C618.243 290.189 617.656 291.362 616.859 292.388L606.037 315.229C602.754 322.161 597.064 327.665 590.026 330.717L569.443 339.645C569.047 339.816 568.619 339.902 568.188 339.898C567.756 339.893 567.331 339.798 566.939 339.618C566.721 339.518 566.515 339.393 566.327 339.245Z" fill="#E07748"/>
<path d="M617.337 265.525C626.594 265.525 634.098 258.021 634.098 248.765C634.098 239.508 626.594 232.004 617.337 232.004C608.08 232.004 600.576 239.508 600.576 248.765C600.576 258.021 608.08 265.525 617.337 265.525Z" fill="#FFB8B8"/>
<path d="M610.538 468.634L602.172 468.633L598.193 436.363L610.542 436.364L610.538 468.634Z" fill="#FFB8B8"/>
<path d="M596.196 466.244H612.331V476.403H586.037C586.037 475.069 586.3 473.748 586.81 472.515C587.321 471.283 588.069 470.163 589.013 469.22C589.956 468.276 591.076 467.528 592.308 467.017C593.541 466.507 594.862 466.244 596.196 466.244Z" fill="#2F2E41"/>
<path d="M637.835 468.637L629.469 468.636L625.49 436.365L637.839 436.367L637.835 468.637Z" fill="#FFB8B8"/>
<path d="M623.493 466.244H639.628V476.403H613.334C613.334 475.069 613.597 473.748 614.107 472.515C614.618 471.283 615.366 470.163 616.309 469.22C617.253 468.276 618.373 467.528 619.605 467.017C620.838 466.507 622.159 466.244 623.493 466.244Z" fill="#2F2E41"/>
<path d="M638.445 460.447L628.641 460.446C627.966 460.445 627.31 460.223 626.774 459.812C626.238 459.401 625.852 458.826 625.676 458.175L611.564 405.833C611.542 405.751 611.49 405.681 611.419 405.635C611.348 405.589 611.263 405.571 611.18 405.585C611.096 405.599 611.021 405.643 610.968 405.709C610.915 405.774 610.889 405.858 610.894 405.942L613.745 455.582C613.77 456.021 613.7 456.46 613.541 456.87C613.382 457.28 613.137 457.651 612.822 457.958C612.507 458.264 612.13 458.5 611.716 458.649C611.302 458.797 610.862 458.855 610.423 458.818L599.404 457.899C598.698 457.839 598.035 457.537 597.525 457.044C597.016 456.551 596.693 455.898 596.609 455.194L586.57 350.959L590.454 353.29L626.846 347.111L641.489 456.97C641.547 457.404 641.511 457.845 641.385 458.264C641.258 458.683 641.044 459.07 640.755 459.399C640.467 459.728 640.112 459.992 639.713 460.173C639.315 460.353 638.883 460.447 638.445 460.447H638.445Z" fill="#2F2E41"/>
<path d="M598.743 361.962C594.728 361.93 590.795 360.823 587.353 358.756C586.822 358.442 586.399 357.975 586.139 357.416C585.879 356.857 585.794 356.232 585.895 355.624C587.175 347.786 593.868 307.577 599.958 285.657C602.438 276.729 607.923 271.921 616.259 271.365C628.452 270.565 639.29 280.105 640.419 292.656C642.409 314.8 634.322 346.26 630.753 358.759C630.615 359.241 630.36 359.683 630.011 360.044C629.663 360.405 629.23 360.675 628.753 360.831C628.276 360.986 627.767 361.022 627.273 360.935C626.778 360.848 626.312 360.641 625.916 360.332L618.641 354.673C618.193 354.331 617.64 354.156 617.077 354.18C616.514 354.203 615.977 354.423 615.559 354.801C609.427 360.271 603.601 361.962 598.743 361.962Z" fill="#E07748"/>
<path opacity="0.2" d="M622.804 303.492L628.945 329.425L620.072 351.261L626.215 330.107L622.804 303.492Z" fill="black"/>
<path d="M626.901 262.547C628.392 262.575 629.873 262.307 631.26 261.759C631.87 261.524 632.504 261.33 633.113 261.095C638.491 259.017 642.035 253.289 642.162 247.525C642.289 241.76 639.304 236.165 634.871 232.477C630.438 228.79 624.697 226.896 618.947 226.458C612.754 225.987 605.781 227.557 602.32 232.714C601.399 234.087 600.754 235.753 601.3 237.41C601.464 237.91 601.756 238.359 602.147 238.711C603.692 240.086 605.233 239.052 606.808 238.961C608.974 238.835 610.919 240.588 611.618 242.642C612.317 244.695 612.009 246.956 611.444 249.05C611.014 250.31 610.743 251.619 610.637 252.947C610.592 253.612 610.717 254.278 611.001 254.882C611.285 255.486 611.718 256.007 612.26 256.396C613.613 257.214 615.39 256.741 616.744 255.924C618.098 255.108 619.268 253.972 620.731 253.371C622.193 252.771 624.158 252.904 625.009 254.237C625.28 254.721 625.463 255.25 625.55 255.798C626.313 259.275 626.138 259.07 626.901 262.547Z" fill="#2F2E41"/>
<path d="M600.922 445.223L495.969 408.673C494.169 408.043 492.691 406.725 491.861 405.008C491.03 403.29 490.915 401.313 491.541 399.511L518.814 321.198C519.275 319.879 520.24 318.796 521.499 318.188C522.757 317.58 524.205 317.496 525.526 317.954L634.026 355.74C635.368 356.209 636.469 357.191 637.088 358.471C637.707 359.752 637.793 361.225 637.327 362.568L610.083 440.795C609.454 442.596 608.136 444.073 606.418 444.903C604.701 445.734 602.724 445.849 600.922 445.223Z" fill="#E6E6E6"/>
<path d="M504.927 404.173L596.7 436.134C598.448 436.742 600.366 436.632 602.032 435.827C603.698 435.021 604.976 433.587 605.584 431.839L627.607 368.602C628.216 366.855 628.105 364.937 627.3 363.271C626.495 361.605 625.06 360.327 623.313 359.718L531.539 327.757C529.792 327.149 527.874 327.259 526.208 328.065C524.542 328.87 523.264 330.304 522.655 332.052L500.632 395.289C500.331 396.154 500.203 397.07 500.256 397.985C500.308 398.9 500.541 399.795 500.94 400.62C501.338 401.445 501.896 402.184 502.58 402.793C503.264 403.403 504.062 403.872 504.927 404.173Z" fill="white"/>
<path d="M527.971 359.743L523.426 358.16C523.18 358.074 522.977 357.894 522.864 357.659C522.75 357.424 522.735 357.153 522.82 356.907L524.403 352.362C524.489 352.115 524.669 351.913 524.904 351.799C525.139 351.686 525.41 351.67 525.656 351.756L530.201 353.339C530.448 353.425 530.65 353.605 530.764 353.84C530.877 354.075 530.893 354.345 530.807 354.592L529.224 359.137C529.138 359.383 528.958 359.586 528.723 359.699C528.488 359.813 528.218 359.828 527.971 359.743Z" fill="#6C63FF"/>
<path d="M523.871 371.52L519.326 369.937C519.08 369.851 518.878 369.671 518.764 369.436C518.651 369.201 518.635 368.931 518.72 368.684L520.303 364.139C520.389 363.892 520.57 363.69 520.805 363.577C521.04 363.463 521.31 363.447 521.557 363.533L526.102 365.116C526.348 365.202 526.55 365.382 526.664 365.617C526.778 365.852 526.793 366.123 526.708 366.369L525.125 370.914C525.039 371.161 524.858 371.363 524.623 371.476C524.388 371.59 524.118 371.606 523.871 371.52Z" fill="#EB4335"/>
<path d="M519.77 383.296L515.225 381.713C514.978 381.627 514.776 381.446 514.663 381.211C514.549 380.976 514.533 380.706 514.619 380.459L516.202 375.914C516.288 375.668 516.468 375.466 516.703 375.352C516.938 375.239 517.209 375.223 517.455 375.308L522 376.891C522.247 376.977 522.449 377.158 522.562 377.393C522.676 377.628 522.692 377.898 522.606 378.145L521.023 382.69C520.937 382.936 520.757 383.138 520.522 383.252C520.287 383.365 520.016 383.381 519.77 383.296Z" fill="#CCCCCC"/>
<path d="M558.511 367.832L536.612 360.206C536.49 360.164 536.377 360.098 536.28 360.012C536.183 359.926 536.104 359.822 536.048 359.705C535.991 359.589 535.958 359.462 535.951 359.333C535.943 359.203 535.961 359.074 536.004 358.952C536.047 358.829 536.113 358.717 536.199 358.62C536.285 358.523 536.39 358.445 536.506 358.389C536.623 358.332 536.75 358.3 536.879 358.293C537.008 358.285 537.138 358.304 537.26 358.347L559.159 365.973C559.281 366.015 559.394 366.081 559.491 366.167C559.588 366.253 559.667 366.358 559.723 366.474C559.78 366.591 559.813 366.717 559.82 366.846C559.828 366.976 559.81 367.105 559.767 367.227C559.724 367.35 559.658 367.462 559.572 367.559C559.486 367.656 559.381 367.734 559.265 367.791C559.148 367.847 559.021 367.879 558.892 367.887C558.763 367.894 558.633 367.875 558.511 367.832Z" fill="#CCCCCC"/>
<path d="M554.411 379.607L532.512 371.981C532.266 371.895 532.063 371.714 531.95 371.479C531.836 371.244 531.82 370.974 531.906 370.727C531.992 370.481 532.172 370.278 532.408 370.165C532.643 370.051 532.913 370.035 533.16 370.121L555.059 377.748C555.181 377.79 555.294 377.856 555.391 377.942C555.487 378.028 555.566 378.132 555.623 378.249C555.679 378.365 555.712 378.492 555.72 378.621C555.727 378.75 555.709 378.88 555.667 379.002C555.624 379.124 555.558 379.237 555.471 379.333C555.385 379.43 555.281 379.509 555.164 379.565C555.048 379.621 554.921 379.654 554.792 379.661C554.663 379.668 554.533 379.65 554.411 379.607Z" fill="#CCCCCC"/>
<path d="M550.31 391.384L528.411 383.758C528.164 383.672 527.962 383.492 527.848 383.257C527.734 383.022 527.719 382.751 527.805 382.504C527.891 382.258 528.071 382.056 528.306 381.942C528.541 381.828 528.812 381.813 529.058 381.899L550.957 389.525C551.204 389.611 551.406 389.791 551.52 390.026C551.633 390.261 551.649 390.532 551.563 390.778C551.477 391.025 551.297 391.227 551.062 391.341C550.827 391.455 550.556 391.47 550.31 391.384Z" fill="#CCCCCC"/>
<path d="M608.587 397.764C608.747 397.382 608.897 396.993 609.035 396.596C610.835 391.428 610.508 385.756 608.126 380.829C605.745 375.902 601.503 372.122 596.335 370.322L589.137 390.991L608.587 397.764Z" fill="#EB4335"/>
<path d="M587.043 392.248L594.241 371.58C590.437 370.255 586.329 370.072 582.422 371.054C578.516 372.037 574.982 374.141 572.257 377.107C569.532 380.073 567.735 383.772 567.087 387.748C566.439 391.723 566.969 395.802 568.611 399.48C570.253 403.158 572.936 406.275 576.329 408.446C579.721 410.618 583.675 411.749 587.703 411.7C591.731 411.652 595.656 410.425 598.995 408.172C602.334 405.92 604.941 402.739 606.494 399.022L587.043 392.248Z" fill="url(#paint0_linear_512_11566)"/>
<path d="M612.812 362.598C612.73 361.599 612.869 360.593 613.218 359.653C613.568 358.712 614.119 357.86 614.833 357.155C615.547 356.451 616.408 355.912 617.353 355.576C618.298 355.24 619.305 355.115 620.304 355.21L630.454 333.037L637.169 343.784L626.501 363.192C626.23 364.859 625.356 366.369 624.046 367.435C622.736 368.501 621.08 369.049 619.393 368.976C617.705 368.903 616.103 368.213 614.89 367.038C613.678 365.862 612.938 364.283 612.812 362.598Z" fill="#FFB8B8"/>
<path d="M630.384 354.79C629.759 354.79 629.149 354.6 628.635 354.244L623.842 350.927C623.324 350.566 622.929 350.055 622.711 349.463C622.493 348.871 622.462 348.226 622.622 347.616L628.255 326.338L621.445 286.831C621.438 285.531 621.686 284.242 622.177 283.038C622.667 281.834 623.391 280.739 624.305 279.815C625.219 278.89 626.307 278.155 627.505 277.652C628.704 277.148 629.99 276.885 631.29 276.879C632.59 276.873 633.879 277.123 635.082 277.615C636.286 278.107 637.38 278.831 638.303 279.747C639.227 280.662 639.96 281.751 640.462 282.95C640.965 284.149 641.226 285.435 641.23 286.735L646.81 311.386C648.505 318.868 647.424 326.71 643.77 333.455L633.083 353.182C632.877 353.561 632.594 353.893 632.252 354.156C631.909 354.418 631.516 354.606 631.096 354.706C630.863 354.762 630.624 354.79 630.384 354.79Z" fill="#E07748"/>
<path d="M682.319 476.787H552.661C552.48 476.787 552.306 476.715 552.178 476.587C552.05 476.459 551.979 476.285 551.979 476.104C551.979 475.923 552.05 475.75 552.178 475.622C552.306 475.494 552.48 475.422 552.661 475.422H682.319C682.5 475.422 682.674 475.494 682.802 475.622C682.93 475.75 683.002 475.923 683.002 476.104C683.002 476.285 682.93 476.459 682.802 476.587C682.674 476.715 682.5 476.787 682.319 476.787Z" fill="#CCCCCC"/>
<path d="M338.753 468.295L347.12 468.295L351.1 436.025H338.752L338.753 468.295Z" fill="#A0616A"/>
<path d="M336.619 465.565L353.095 465.564H353.096C354.475 465.564 355.84 465.836 357.114 466.364C358.388 466.891 359.545 467.665 360.52 468.64C361.495 469.615 362.269 470.772 362.797 472.046C363.324 473.32 363.596 474.685 363.596 476.064V476.405L336.62 476.406L336.619 465.565Z" fill="#2F2E41"/>
<path d="M305.316 468.295L313.682 468.295L317.662 436.025H305.314L305.316 468.295Z" fill="#A0616A"/>
<path d="M303.182 465.565L319.658 465.564H319.658C321.037 465.564 322.403 465.836 323.676 466.364C324.95 466.891 326.108 467.665 327.083 468.64C328.058 469.615 328.831 470.772 329.359 472.046C329.887 473.32 330.158 474.685 330.158 476.064V476.405L303.182 476.406L303.182 465.565Z" fill="#2F2E41"/>
<path d="M340.423 244.887C349.68 244.887 357.184 237.383 357.184 228.126C357.184 218.869 349.68 211.365 340.423 211.365C331.166 211.365 323.662 218.869 323.662 228.126C323.662 237.383 331.166 244.887 340.423 244.887Z" fill="#A0616A"/>
<path d="M351.694 461.33H336.168C335.762 461.33 335.36 461.249 334.985 461.093C334.61 460.936 334.269 460.706 333.984 460.417C333.698 460.128 333.473 459.785 333.321 459.408C333.169 459.031 333.093 458.628 333.098 458.222L334 384.5C334.003 384.238 333.906 383.985 333.728 383.793C333.551 383.6 333.306 383.483 333.045 383.466C332.783 383.448 332.525 383.532 332.324 383.698C332.122 383.865 331.992 384.103 331.96 384.363L322.925 458.63C322.833 459.375 322.473 460.06 321.912 460.557C321.35 461.055 320.626 461.329 319.876 461.33H304.202C303.778 461.33 303.359 461.242 302.971 461.073C302.583 460.903 302.235 460.655 301.947 460.344C301.66 460.033 301.44 459.666 301.301 459.266C301.162 458.866 301.107 458.442 301.14 458.02L311.491 325.581L311.772 325.55L361.335 320.197L354.761 458.405C354.725 459.194 354.385 459.938 353.814 460.483C353.243 461.027 352.483 461.331 351.694 461.33Z" fill="#C2D8DE"/>
<path d="M312.093 333.711C311.297 333.709 310.533 333.398 309.962 332.843C309.391 332.288 309.058 331.533 309.033 330.737C308.763 322.363 308.299 293.387 313.689 272.114C315.16 266.303 318.461 261.119 323.106 257.329C327.75 253.539 333.491 251.345 339.479 251.069C345.373 250.747 351.219 252.29 356.187 255.477C361.155 258.665 364.993 263.336 367.157 268.828C376.216 291.827 384.775 320.177 374.104 324.623C360.118 330.45 323.249 333.048 312.282 333.705C312.219 333.709 312.156 333.711 312.093 333.711Z" fill="#E3B1D8"/>
<path d="M376.153 211.186C376.417 211.456 376.701 211.706 377.004 211.931L375.244 245.729L367.926 249.476L372.137 261.259L385.737 255.885C386.836 255.451 387.764 254.672 388.382 253.666C389.001 252.659 389.276 251.479 389.167 250.303L385.604 211.965C386.77 211.095 387.643 209.891 388.108 208.513C388.573 207.134 388.607 205.647 388.206 204.249C387.805 202.851 386.987 201.608 385.863 200.685C384.738 199.763 383.359 199.204 381.909 199.085C380.459 198.965 379.008 199.29 377.747 200.015C376.486 200.741 375.476 201.833 374.851 203.147C374.226 204.461 374.016 205.933 374.249 207.369C374.482 208.805 375.146 210.136 376.153 211.186Z" fill="#A0616A"/>
<path d="M375.382 246.987L380.53 261.617C380.677 262.033 380.732 262.476 380.692 262.916C380.652 263.355 380.517 263.781 380.298 264.164C380.078 264.547 379.779 264.878 379.42 265.134C379.061 265.391 378.651 265.567 378.218 265.651L363.037 268.591C360.903 269.329 358.563 269.19 356.532 268.205C354.5 267.22 352.941 265.47 352.198 263.338C351.455 261.206 351.587 258.866 352.567 256.831C353.546 254.797 355.292 253.234 357.422 252.485L371.053 245.29C371.443 245.084 371.873 244.965 372.314 244.94C372.754 244.916 373.195 244.986 373.606 245.147C374.017 245.308 374.388 245.556 374.695 245.873C375.001 246.191 375.236 246.571 375.382 246.987V246.987Z" fill="#E3B1D8"/>
<path d="M303.552 211.186C303.289 211.456 303.005 211.706 302.702 211.931L304.462 245.729L311.78 249.476L307.569 261.259L293.969 255.885C292.87 255.451 291.942 254.672 291.323 253.666C290.705 252.659 290.43 251.479 290.539 250.303L294.102 211.965C292.936 211.095 292.063 209.891 291.598 208.513C291.133 207.134 291.099 205.647 291.5 204.249C291.901 202.851 292.718 201.608 293.843 200.685C294.968 199.763 296.347 199.204 297.797 199.085C299.246 198.965 300.698 199.29 301.959 200.015C303.22 200.741 304.23 201.833 304.855 203.147C305.479 204.461 305.689 205.933 305.457 207.369C305.224 208.805 304.56 210.136 303.552 211.186H303.552Z" fill="#A0616A"/>
<path d="M306.101 245.148C306.511 244.986 306.952 244.916 307.393 244.94C307.833 244.965 308.263 245.084 308.654 245.291L322.284 252.485C324.414 253.234 326.16 254.797 327.14 256.832C328.119 258.866 328.252 261.206 327.508 263.338C326.765 265.47 325.207 267.221 323.175 268.205C321.143 269.19 318.803 269.329 316.669 268.591L301.489 265.652C301.056 265.568 300.645 265.391 300.287 265.135C299.928 264.878 299.628 264.547 299.409 264.164C299.189 263.781 299.055 263.356 299.015 262.916C298.975 262.477 299.03 262.034 299.176 261.618L304.324 246.987C304.471 246.571 304.705 246.191 305.012 245.873C305.318 245.556 305.69 245.308 306.101 245.148Z" fill="#E3B1D8"/>
<path d="M346.934 230.983C346.846 228.845 347.382 226.728 348.478 224.89C349.574 223.052 351.181 221.573 353.103 220.633C358.198 218.003 361.399 212.393 359.996 207.27C358.201 200.713 349.276 196.46 342.045 198.716C340.088 199.411 338.201 200.288 336.408 201.336L331.684 203.868C329.665 204.879 327.72 206.027 325.86 207.306C323.074 209.359 320.891 212.122 319.538 215.307C318.185 218.491 317.712 221.981 318.169 225.411C319.099 232.077 323.465 238.19 329.441 242.376C331.726 244.084 334.366 245.257 337.165 245.809C340.029 246.282 343.218 245.745 345.312 243.964C348.585 241.18 348.247 236.518 347.189 232.624C347.049 232.087 346.963 231.538 346.934 230.983Z" fill="#2F2E41"/>
<path d="M403.895 476.787H274.237C274.056 476.787 273.883 476.715 273.755 476.587C273.627 476.459 273.555 476.285 273.555 476.104C273.555 475.923 273.627 475.75 273.755 475.622C273.883 475.494 274.056 475.422 274.237 475.422H403.895C404.076 475.422 404.25 475.494 404.378 475.622C404.506 475.75 404.578 475.923 404.578 476.104C404.578 476.285 404.506 476.459 404.378 476.587C404.25 476.715 404.076 476.787 403.895 476.787Z" fill="#CCCCCC"/>
<path d="M192.285 352.294L85.2988 396.185C83.4614 396.937 81.401 396.928 79.5696 396.163C77.7383 395.397 76.2855 393.936 75.5299 392.1L42.7797 312.269C42.2292 310.923 42.2352 309.414 42.7962 308.072C43.3573 306.73 44.4276 305.666 45.7725 305.113L156.376 259.738C157.745 259.178 159.281 259.184 160.646 259.755C162.011 260.326 163.093 261.415 163.656 262.783L196.371 342.525C197.122 344.363 197.114 346.423 196.348 348.255C195.582 350.086 194.121 351.539 192.285 352.294Z" fill="#E6E6E6"/>
<path d="M89.1746 386.503L182.727 348.124C184.508 347.393 185.927 345.984 186.67 344.208C187.412 342.431 187.419 340.432 186.688 338.651L160.243 274.188C159.881 273.306 159.349 272.504 158.677 271.828C158.005 271.151 157.206 270.614 156.327 270.246C155.447 269.878 154.504 269.687 153.55 269.684C152.597 269.68 151.652 269.865 150.77 270.227L57.2176 308.606C56.3355 308.968 55.5333 309.5 54.8569 310.172C54.1804 310.844 53.6429 311.643 53.275 312.522C52.9072 313.402 52.7162 314.346 52.7129 315.299C52.7097 316.252 52.8943 317.197 53.2562 318.079L79.7018 382.542C80.0637 383.424 80.5957 384.226 81.2676 384.903C81.9395 385.579 82.7381 386.117 83.6177 386.485C84.4974 386.852 85.4408 387.043 86.3943 387.047C87.3477 387.05 88.2925 386.865 89.1746 386.503Z" fill="white"/>
<path d="M159.727 291.768L158.352 292.332L158.446 292.561L159.821 291.997L159.727 291.768Z" fill="#E6E6E6"/>
<path d="M155.667 293.702L152.888 294.842L152.794 294.613L155.573 293.473L155.667 293.702ZM150.109 295.982L147.331 297.122L147.237 296.892L150.015 295.753L150.109 295.982ZM144.552 298.262L141.774 299.401L141.68 299.172L144.458 298.032L144.552 298.262ZM138.995 300.541L136.216 301.681L136.122 301.452L138.901 300.312L138.995 300.541ZM133.438 302.821L130.659 303.961L130.565 303.732L133.344 302.592L133.438 302.821ZM127.881 305.101L125.102 306.241L125.008 306.012L127.786 304.872L127.881 305.101ZM122.323 307.381L119.545 308.521L119.451 308.292L122.229 307.152L122.323 307.381ZM116.766 309.661L113.987 310.801L113.893 310.571L116.672 309.432L116.766 309.661ZM111.209 311.941L108.43 313.081L108.336 312.851L111.115 311.711L111.209 311.941ZM105.652 314.22L102.873 315.36L102.779 315.131L105.558 313.991L105.652 314.22ZM100.094 316.5L97.3158 317.64L97.2217 317.411L100 316.271L100.094 316.5ZM94.5371 318.78L91.7586 319.92L91.6645 319.691L94.4431 318.551L94.5371 318.78ZM88.9799 321.06L86.2013 322.2L86.1073 321.971L88.8859 320.831L88.9799 321.06ZM83.4227 323.34L80.6441 324.48L80.55 324.251L83.3287 323.111L83.4227 323.34ZM77.8655 325.62L75.0869 326.76L74.9928 326.53L77.7714 325.39L77.8655 325.62ZM72.3082 327.899L69.5296 329.039L69.4355 328.81L72.2142 327.67L72.3082 327.899Z" fill="#E6E6E6"/>
<path d="M66.6567 329.949L65.2812 330.514L65.3753 330.743L66.7507 330.179L66.6567 329.949Z" fill="#E6E6E6"/>
<path d="M123.313 331.613L121.938 332.178L122.032 332.407L123.407 331.843L123.313 331.613Z" fill="#E6E6E6"/>
<path d="M119.293 333.53L116.556 334.653L116.462 334.424L119.199 333.301L119.293 333.53ZM113.818 335.776L111.081 336.899L110.987 336.67L113.724 335.547L113.818 335.776ZM108.344 338.022L105.606 339.145L105.512 338.916L108.249 337.793L108.344 338.022ZM102.869 340.268L100.131 341.391L100.037 341.162L102.775 340.039L102.869 340.268ZM97.3942 342.514L94.6568 343.637L94.5627 343.408L97.3001 342.285L97.3942 342.514ZM91.9194 344.76L89.1821 345.883L89.088 345.654L91.8254 344.531L91.9194 344.76ZM86.4447 347.006L83.7074 348.129L83.6133 347.9L86.3507 346.777L86.4447 347.006ZM80.9701 349.252L78.2327 350.375L78.1387 350.146L80.876 349.023L80.9701 349.252Z" fill="#E6E6E6"/>
<path d="M75.4028 351.268L74.0273 351.832L74.1214 352.061L75.4968 351.497L75.4028 351.268Z" fill="#E6E6E6"/>
<path d="M100.629 352.703L99.2539 353.268L99.348 353.497L100.723 352.933L100.629 352.703Z" fill="#E6E6E6"/>
<path d="M96.5331 354.651L93.7168 355.806L93.6227 355.577L96.439 354.422L96.5331 354.651ZM90.9004 356.962L88.0841 358.117L87.99 357.888L90.8064 356.733L90.9004 356.962ZM85.2678 359.273L82.4515 360.428L82.3574 360.199L85.1737 359.043L85.2678 359.273Z" fill="#E6E6E6"/>
<path d="M79.5395 361.356L78.1641 361.92L78.2581 362.149L79.6335 361.585L79.5395 361.356Z" fill="#E6E6E6"/>
<path d="M107.692 369.916L106.316 370.48L106.41 370.71L107.786 370.145L107.692 369.916Z" fill="#E6E6E6"/>
<path d="M103.594 371.864L100.777 373.019L100.683 372.79L103.5 371.635L103.594 371.864ZM97.9609 374.175L95.1446 375.33L95.0506 375.101L97.8669 373.946L97.9609 374.175ZM92.3283 376.486L89.512 377.641L89.418 377.412L92.2343 376.256L92.3283 376.486Z" fill="#E6E6E6"/>
<path d="M86.602 378.569L85.2266 379.133L85.3206 379.362L86.696 378.798L86.602 378.569Z" fill="#E6E6E6"/>
<path d="M93.1465 376.356L172.426 343.832C174.344 343.042 175.872 341.523 176.672 339.609C177.473 337.695 177.481 335.541 176.696 333.621L160.678 294.576L160.523 294.645L141.068 341.163L126.638 335.13C126.372 335.018 126.084 334.969 125.795 334.987C125.507 335.005 125.227 335.09 124.976 335.234C124.601 335.46 124.31 335.804 124.149 336.212L113.953 360.589L103.403 356.179C103.176 356.084 102.931 356.034 102.685 356.033C102.438 356.032 102.193 356.08 101.965 356.174C101.737 356.267 101.529 356.405 101.354 356.579C101.179 356.753 101.04 356.96 100.945 357.187C100.877 357.353 94.3721 373.313 93.1465 376.356Z" fill="url(#paint1_linear_512_11566)"/>
<path d="M92.9024 376.723L92.6738 376.628L100.832 357.12C101.048 356.605 101.459 356.197 101.976 355.985C102.492 355.773 103.072 355.774 103.587 355.989L113.929 360.314L124.067 336.072C124.283 335.557 124.694 335.148 125.211 334.936C125.728 334.725 126.307 334.726 126.822 334.941L141.043 340.888L160.599 294.127L160.827 294.223L141.176 341.212L126.727 335.17C126.502 335.075 126.26 335.027 126.016 335.026C125.772 335.025 125.53 335.072 125.305 335.165C125.079 335.257 124.874 335.394 124.7 335.566C124.527 335.738 124.39 335.942 124.296 336.167L114.062 360.638L103.492 356.218C103.037 356.028 102.526 356.027 102.07 356.214C101.614 356.401 101.251 356.761 101.06 357.215L92.9024 376.723Z" fill="#3F3D56"/>
<path d="M100.678 354.553C101.636 354.553 102.412 353.776 102.412 352.818C102.412 351.861 101.636 351.084 100.678 351.084C99.7199 351.084 98.9434 351.861 98.9434 352.818C98.9434 353.776 99.7199 354.553 100.678 354.553Z" fill="#3F3D56"/>
<path d="M123.359 333.463C124.317 333.463 125.094 332.686 125.094 331.729C125.094 330.771 124.317 329.994 123.359 329.994C122.402 329.994 121.625 330.771 121.625 331.729C121.625 332.686 122.402 333.463 123.359 333.463Z" fill="#3F3D56"/>
<path d="M158.68 293.555C159.638 293.555 160.414 292.778 160.414 291.82C160.414 290.862 159.638 290.086 158.68 290.086C157.722 290.086 156.945 290.862 156.945 291.82C156.945 292.778 157.722 293.555 158.68 293.555Z" fill="#3F3D56"/>
<path d="M61.597 350.85C62.4986 350.401 63.2909 349.76 63.9181 348.972C64.5452 348.184 64.992 347.268 65.2268 346.289C65.4617 345.31 65.479 344.291 65.2775 343.304C65.0759 342.317 64.6605 341.387 64.0605 340.578L69.2117 290.213H58.0793L53.9855 339.392C52.6935 340.49 51.8493 342.024 51.6127 343.703C51.3761 345.382 51.7636 347.089 52.7019 348.502C53.6401 349.914 55.0638 350.933 56.7032 351.366C58.3427 351.799 60.0839 351.615 61.597 350.85Z" fill="#FFB8B8"/>
<path d="M71.8185 262.416C80.517 262.416 87.5686 255.365 87.5686 246.666C87.5686 237.968 80.517 230.916 71.8185 230.916C63.1199 230.916 56.0684 237.968 56.0684 246.666C56.0684 255.365 63.1199 262.416 71.8185 262.416Z" fill="#FFB8B8"/>
<path d="M74.7844 319.543C74.1539 319.543 73.5409 319.336 73.0394 318.954C72.538 318.572 72.1757 318.036 72.0083 317.428C70.7464 312.843 67.4634 305.092 62.2506 294.387C61.0744 291.968 60.423 289.327 60.3393 286.638C60.2556 283.948 60.7414 281.272 61.7648 278.784C62.7882 276.296 64.3261 274.052 66.2776 272.2C68.2292 270.348 70.5502 268.929 73.0885 268.038C75.494 267.188 78.0453 266.83 80.5916 266.984C83.1379 267.138 85.6275 267.801 87.913 268.934C90.1986 270.067 92.2336 271.647 93.8979 273.58C95.5621 275.514 96.8216 277.761 97.602 280.19C101.642 292.857 101.447 306.427 101.176 311.672C101.142 312.304 100.902 312.907 100.493 313.39C100.084 313.872 99.5276 314.207 98.9097 314.343L75.4032 319.476C75.2 319.521 74.9925 319.543 74.7844 319.543Z" fill="#FBBC05"/>
<path d="M97.5482 469.104H105.41L109.15 438.779L97.5469 438.78L97.5482 469.104Z" fill="#FFB8B8"/>
<path d="M120.572 476.404L95.8639 476.405L95.8634 466.859L111.025 466.858C112.279 466.858 113.52 467.105 114.679 467.585C115.837 468.065 116.889 468.768 117.776 469.654C118.662 470.541 119.366 471.593 119.845 472.751C120.325 473.909 120.572 475.151 120.572 476.404Z" fill="#2F2E41"/>
<path d="M18.9355 458.915L25.8252 462.702L43.7126 437.932L33.5453 432.342L18.9355 458.915Z" fill="#FFB8B8"/>
<path d="M35.5938 476.404L13.9418 464.501L18.541 456.135L31.8274 463.44C34.0461 464.659 35.6893 466.711 36.3956 469.142C37.102 471.573 36.8135 474.186 35.5938 476.404Z" fill="#2F2E41"/>
<path d="M97.1806 452.274C96.4801 452.274 95.8037 452.018 95.2776 451.556C94.7516 451.093 94.4118 450.455 94.3217 449.76L84.4897 373.996C84.4462 373.661 84.298 373.348 84.0661 373.102C83.8343 372.856 83.5307 372.69 83.1987 372.627C82.8667 372.564 82.5232 372.607 82.2174 372.751C81.9116 372.895 81.6591 373.132 81.4959 373.428L40.52 447.77C40.1819 448.377 39.6372 448.842 38.985 449.082C38.3327 449.321 37.6162 449.318 36.9657 449.074L28.0341 445.671C27.6749 445.534 27.3466 445.327 27.0686 445.062C26.7906 444.796 26.5684 444.478 26.4151 444.125C26.2618 443.773 26.1805 443.393 26.176 443.009C26.1715 442.624 26.2438 442.243 26.3887 441.887L54.7738 372.158C54.8456 371.981 54.8944 371.795 54.9187 371.605C58.7634 341.848 68.5453 326.716 71.4517 322.787C71.6639 322.498 71.8036 322.163 71.859 321.809C71.9143 321.455 71.8837 321.092 71.7697 320.753L71.3701 319.554C71.2105 319.078 71.1778 318.569 71.2752 318.077C71.3726 317.585 71.5967 317.126 71.9254 316.747C82.3981 304.819 100.652 311.328 100.835 311.395L100.926 311.429L100.984 311.507C121.451 339.577 113.883 430.746 112.159 448.737C112.094 449.413 111.793 450.045 111.308 450.52C110.823 450.996 110.185 451.284 109.508 451.334L97.4048 452.266C97.3295 452.272 97.2549 452.274 97.1806 452.274Z" fill="#5CBCA5"/>
<path d="M133.05 264.962C132.971 265.308 132.92 265.66 132.896 266.014L105.349 281.905L98.6537 278.051L91.5156 287.396L102.706 295.371C103.61 296.016 104.699 296.349 105.808 296.322C106.918 296.295 107.989 295.909 108.861 295.221L137.267 272.812C138.549 273.286 139.945 273.359 141.269 273.021C142.594 272.683 143.784 271.949 144.681 270.918C145.578 269.887 146.141 268.607 146.293 267.249C146.445 265.89 146.18 264.518 145.533 263.314C144.887 262.109 143.888 261.131 142.672 260.508C141.455 259.884 140.077 259.647 138.722 259.826C137.367 260.004 136.098 260.592 135.085 261.509C134.072 262.427 133.362 263.631 133.05 264.962Z" fill="#FFB8B8"/>
<path d="M104.43 282.658L95.5266 294.197C95.2732 294.525 94.9521 294.795 94.5851 294.988C94.2181 295.181 93.8138 295.293 93.3997 295.316C92.9857 295.338 92.5716 295.272 92.1857 295.12C91.7998 294.968 91.4511 294.735 91.1635 294.436L81.0845 283.97C79.4121 282.664 78.3257 280.749 78.0634 278.643C77.8012 276.538 78.3845 274.415 79.6855 272.739C80.9865 271.063 82.899 269.971 85.0036 269.703C87.1083 269.435 89.2334 270.012 90.9129 271.309L103.554 278.377C103.916 278.58 104.23 278.858 104.475 279.193C104.719 279.527 104.889 279.911 104.972 280.317C105.055 280.724 105.05 281.143 104.956 281.547C104.863 281.951 104.683 282.33 104.43 282.658Z" fill="#FBBC05"/>
<path d="M69.9224 302.706L55.58 300.116C55.1719 300.042 54.7845 299.882 54.4441 299.645C54.1038 299.408 53.8185 299.1 53.6077 298.743C53.3969 298.386 53.2655 297.988 53.2226 297.575C53.1796 297.163 53.226 296.746 53.3587 296.353L58.0082 282.587C58.397 280.501 59.597 278.654 61.3452 277.452C63.0934 276.25 65.247 275.79 67.3339 276.173C69.4208 276.556 71.2706 277.751 72.4776 279.496C73.6847 281.241 74.1505 283.393 73.773 285.481L73.3193 299.957C73.3062 300.372 73.2039 300.779 73.0194 301.15C72.8349 301.521 72.5726 301.849 72.2502 302.109C71.9278 302.37 71.553 302.559 71.1513 302.662C70.7496 302.764 70.3304 302.78 69.9223 302.706H69.9224Z" fill="#FBBC05"/>
<path d="M74.3126 243.045C78.3607 245.816 83.676 248.664 87.8105 245.713C89.1038 244.728 90.0434 243.351 90.4885 241.788C90.9336 240.224 90.8604 238.558 90.2798 237.04C88.3 231.379 82.8607 228.886 77.6594 226.976C70.8976 224.492 63.5351 222.516 56.5547 224.295C49.5742 226.074 43.4051 232.832 44.6652 239.924C45.6786 245.628 51.0586 250.374 50.2949 256.116C49.5262 261.895 43.0269 264.937 37.2891 265.97C31.5512 267.003 25.1305 267.335 21.0069 271.456C15.7465 276.714 17.0601 286.111 22.0099 291.662C26.9597 297.213 34.4292 299.729 41.6671 301.44C51.2569 303.706 61.629 304.897 70.737 301.136C79.8449 297.375 86.9325 287.25 84.2941 277.756C83.1796 273.745 80.5543 270.356 78.0171 267.057C75.4798 263.757 72.9106 260.307 71.9428 256.258C71.1362 252.885 71.7332 248.968 73.9703 246.437C74.3772 245.995 74.6333 245.434 74.7018 244.837C74.7703 244.239 74.6476 243.635 74.3515 243.112L74.3126 243.045Z" fill="#2F2E41"/>
<path d="M134.343 476.787H4.68437C4.50338 476.787 4.3298 476.715 4.20183 476.587C4.07385 476.459 4.00195 476.285 4.00195 476.104C4.00195 475.923 4.07385 475.75 4.20183 475.622C4.3298 475.494 4.50338 475.422 4.68437 475.422H134.343C134.524 475.422 134.697 475.494 134.825 475.622C134.953 475.75 135.025 475.923 135.025 476.104C135.025 476.285 134.953 476.459 134.825 476.587C134.697 476.715 134.524 476.787 134.343 476.787Z" fill="#CCCCCC"/>
</g>
<defs>
<filter id="filter0_d_512_11566" x="0.00195312" y="0.679688" width="687" height="484.107" filterUnits="userSpaceOnUse" color-interpolation-filters="sRGB">
<feFlood flood-opacity="0" result="BackgroundImageFix"/>
<feColorMatrix in="SourceAlpha" type="matrix" values="0 0 0 0 0 0 0 0 0 0 0 0 0 0 0 0 0 0 127 0" result="hardAlpha"/>
<feOffset dy="4"/>
<feGaussianBlur stdDeviation="2"/>
<feComposite in2="hardAlpha" operator="out"/>
<feColorMatrix type="matrix" values="0 0 0 0 0 0 0 0 0 0 0 0 0 0 0 0 0 0 0.25 0"/>
<feBlend mode="normal" in2="BackgroundImageFix" result="effect1_dropShadow_512_11566"/>
<feBlend mode="normal" in="SourceGraphic" in2="effect1_dropShadow_512_11566" result="shape"/>
</filter>
<linearGradient id="paint0_linear_512_11566" x1="586.656" y1="370.432" x2="586.656" y2="411.702" gradientUnits="userSpaceOnUse">
<stop stop-color="#113366"/>
<stop offset="1" stop-color="#6C63FF"/>
</linearGradient>
<linearGradient id="paint1_linear_512_11566" x1="177.334" y1="309.471" x2="63.0297" y2="376.688" gradientUnits="userSpaceOnUse">
<stop stop-color="#00B0FF"/>
<stop offset="1" stop-color="#172D6C"/>
</linearGradient>
</defs>
</svg>
