<svg width="116" height="73" viewBox="0 0 116 73" fill="none" xmlns="http://www.w3.org/2000/svg">
<g opacity="0.8">
<rect x="1" width="113.712" height="72" fill="white"/>
<line x1="1" y1="0.7" x2="114.712" y2="0.7" stroke="#F5F5F5" stroke-width="0.6"/>
<line x1="1.3" y1="1" x2="1.3" y2="73" stroke="#F5F5F5" stroke-width="0.6"/>
<line x1="17.8586" y1="1" x2="17.8586" y2="73" stroke="#F5F5F5" stroke-width="0.6"/>
<line x1="33.3156" y1="1" x2="33.3156" y2="73" stroke="#F5F5F5" stroke-width="0.6"/>
<line x1="49.8742" y1="1" x2="49.8742" y2="73" stroke="#F5F5F5" stroke-width="0.6"/>
<line x1="66.4367" y1="1" x2="66.4367" y2="73" stroke="#F5F5F5" stroke-width="0.6"/>
<line x1="82.9953" y1="1" x2="82.9953" y2="73" stroke="#F5F5F5" stroke-width="0.6"/>
<line x1="98.4523" y1="1" x2="98.4523" y2="73" stroke="#F5F5F5" stroke-width="0.6"/>
<line x1="115.011" y1="1" x2="115.011" y2="73" stroke="#F5F5F5" stroke-width="0.6"/>
<line x1="1" y1="9.7" x2="114.712" y2="9.7" stroke="#F5F5F5" stroke-width="0.6"/>
<line x1="1" y1="18.7" x2="114.712" y2="18.7" stroke="#F5F5F5" stroke-width="0.6"/>
<line x1="1" y1="27.7" x2="114.712" y2="27.7" stroke="#F5F5F5" stroke-width="0.6"/>
<line x1="1" y1="36.7" x2="114.712" y2="36.7" stroke="#F5F5F5" stroke-width="0.6"/>
<line x1="1" y1="45.7" x2="114.712" y2="45.7" stroke="#F5F5F5" stroke-width="0.6"/>
<line x1="1" y1="54.7" x2="114.712" y2="54.7" stroke="#F5F5F5" stroke-width="0.6"/>
<line x1="1" y1="63.7" x2="114.712" y2="63.7" stroke="#F5F5F5" stroke-width="0.6"/>
<line x1="1" y1="72.7" x2="114.712" y2="72.7" stroke="#F5F5F5" stroke-width="0.6"/>
</g>
<path d="M1 53.5C1 53.5 2.104 41 26.458 44.3034C50.8119 47.6069 44.8611 37.7984 55.485 29.6276C68.0928 19.931 80.1918 38.9532 93.0151 32.5103C100.583 28.7079 110.021 16 114.712 16" stroke="#0046FE" stroke-width="2" stroke-linecap="round"/>
<path d="M26.9384 41.3034C2.58447 38 1.48047 50.5 1.48047 50.5V69H115.192V13C110.501 13 101.064 25.7079 93.4956 29.5103C80.6723 35.9532 68.5732 16.931 55.9655 26.6276C45.3415 34.7984 51.2924 44.6069 26.9384 41.3034Z" fill="url(#paint0_linear_917_12847)"/>
<defs>
<linearGradient id="paint0_linear_917_12847" x1="50.6085" y1="-70" x2="56.4987" y2="62.0573" gradientUnits="userSpaceOnUse">
<stop stop-color="#0046FE"/>
<stop offset="1" stop-color="#0046FE" stop-opacity="0"/>
</linearGradient>
</defs>
</svg>
