<svg width="63" height="35" viewBox="0 0 63 35" fill="none" xmlns="http://www.w3.org/2000/svg">
<path d="M7.41259 28.4214H5.14459V30.7494H3.56059V28.4214H1.29259V26.9574H3.56059V24.6294H5.14459V26.9574H7.41259L7.41259 28.4214ZM8.82653 24.7614V23.2134H11.7185V31.9614H9.99053V24.7614H8.82653ZM13.3782 27.4734C13.3782 26.0894 13.6262 25.0054 14.1222 24.2214C14.6262 23.4374 15.4582 23.0454 16.6182 23.0454C17.7782 23.0454 18.6062 23.4374 19.1022 24.2214C19.6062 25.0054 19.8582 26.0894 19.8582 27.4734C19.8582 28.8654 19.6062 29.9574 19.1022 30.7494C18.6062 31.5414 17.7782 31.9374 16.6182 31.9374C15.4582 31.9374 14.6262 31.5414 14.1222 30.7494C13.6262 29.9574 13.3782 28.8654 13.3782 27.4734ZM18.2022 27.4734C18.2022 26.8814 18.1622 26.3854 18.0822 25.9854C18.0102 25.5774 17.8582 25.2454 17.6262 24.9894C17.4022 24.7334 17.0662 24.6054 16.6182 24.6054C16.1702 24.6054 15.8302 24.7334 15.5982 24.9894C15.3742 25.2454 15.2222 25.5774 15.1422 25.9854C15.0702 26.3854 15.0342 26.8814 15.0342 27.4734C15.0342 28.0814 15.0702 28.5934 15.1422 29.0094C15.2142 29.4174 15.3662 29.7494 15.5982 30.0054C15.8302 30.2534 16.1702 30.3774 16.6182 30.3774C17.0662 30.3774 17.4062 30.2534 17.6382 30.0054C17.8702 29.7494 18.0222 29.4174 18.0942 29.0094C18.1662 28.5934 18.2022 28.0814 18.2022 27.4734ZM20.944 25.3614C20.944 24.7534 21.12 24.2774 21.472 23.9334C21.832 23.5894 22.292 23.4174 22.852 23.4174C23.412 23.4174 23.868 23.5894 24.22 23.9334C24.58 24.2774 24.76 24.7534 24.76 25.3614C24.76 25.9774 24.58 26.4574 24.22 26.8014C23.868 27.1454 23.412 27.3174 22.852 27.3174C22.292 27.3174 21.832 27.1454 21.472 26.8014C21.12 26.4574 20.944 25.9774 20.944 25.3614ZM28.648 23.5614L23.932 31.9614H22.3L27.004 23.5614H28.648ZM22.84 24.4254C22.4 24.4254 22.18 24.7374 22.18 25.3614C22.18 25.9934 22.4 26.3094 22.84 26.3094C23.056 26.3094 23.224 26.2334 23.344 26.0814C23.464 25.9214 23.524 25.6814 23.524 25.3614C23.524 24.7374 23.296 24.4254 22.84 24.4254ZM26.212 30.1494C26.212 29.5334 26.388 29.0574 26.74 28.7214C27.1 28.3774 27.56 28.2054 28.12 28.2054C28.68 28.2054 29.132 28.3774 29.476 28.7214C29.828 29.0574 30.004 29.5334 30.004 30.1494C30.004 30.7654 29.828 31.2454 29.476 31.5894C29.132 31.9334 28.68 32.1054 28.12 32.1054C27.552 32.1054 27.092 31.9334 26.74 31.5894C26.388 31.2454 26.212 30.7654 26.212 30.1494ZM28.108 29.2134C27.652 29.2134 27.424 29.5254 27.424 30.1494C27.424 30.7814 27.652 31.0974 28.108 31.0974C28.556 31.0974 28.78 30.7814 28.78 30.1494C28.78 29.5254 28.556 29.2134 28.108 29.2134Z" fill="#35DC94"/>
<path d="M3.50195 7.83742C6.05664 4.87106 11.677 -0.260742 13.7207 2.94293C16.2754 6.94752 18.8301 9.17228 23.3008 6.50256C27.7715 3.83283 29.0488 5.16769 30.9648 9.17228C32.8809 13.1769 34.1582 10.5071 36.7129 5.16769C39.2676 -0.171756 41.8223 6.0576 41.8223 6.94751C41.8223 7.83742 43.0996 10.9521 47.5703 6.94751C52.041 2.94293 51.4023 4.27779 53.3183 4.72274C55.2344 5.16769 55.873 6.0576 58.4277 4.27779" stroke="#35DC94" stroke-width="2.5" stroke-linecap="round"/>
<path d="M55.873 30.0853V22.0762M55.873 22.0762L50.125 26.0808M55.873 22.0762L61.6211 26.0808" stroke="#35DC94" stroke-width="1.5"/>
</svg>
